<?xml version="1.0" encoding="utf-8"?>
<!-- Generator: Adobe Illustrator 24.3.0, SVG Export Plug-In . SVG Version: 6.00 Build 0)  -->
<svg version="1.0" id="Layer_1" xmlns="http://www.w3.org/2000/svg" xmlns:xlink="http://www.w3.org/1999/xlink" x="0px" y="0px"
	 viewBox="0 0 32 32" style="enable-background:new 0 0 32 32;" xml:space="preserve">
<g>
	<g>
		<g>
			<path d="M15.7,31.8c-1.9,0-3.9-0.4-5.7-1.1c-7.2-3-10.6-11.3-7.9-18.9l1,0.3c-2.5,7,0.7,14.7,7.4,17.6c3.8,1.6,8.4,1.4,12.2-0.7
				c3.7-2,6.2-5.5,6.9-9.5c0.6-3.8-0.4-7.7-2.9-10.8c-2.5-3.2-6.2-5.1-10.2-5.4l0.1-1c4.2,0.3,8.2,2.4,10.9,5.8
				c2.6,3.3,3.8,7.5,3.1,11.6c-0.7,4.3-3.4,8-7.4,10.2C20.9,31.1,18.3,31.8,15.7,31.8z"/>
		</g>
		<g>
			<polygon points="16.6,5.3 14,2.7 16.5,0.2 17.2,1 15.5,2.7 17.3,4.5 			"/>
		</g>
	</g>
	<g>
		<path d="M9.9,13c0.5-0.4,1.2-0.6,2-0.6c0.5,0,1,0.1,1.4,0.3c0.4,0.2,0.7,0.5,0.9,0.8c0.2,0.3,0.3,0.7,0.3,1.1
			c0,0.5-0.1,0.9-0.4,1.3s-0.6,0.6-1.1,0.7v0.1c0.5,0.1,0.9,0.4,1.2,0.7c0.3,0.4,0.4,0.9,0.4,1.5c0,0.4-0.1,0.9-0.3,1.2
			c-0.2,0.4-0.5,0.6-0.9,0.8c-0.4,0.2-0.9,0.3-1.5,0.3c-0.8,0-1.5-0.2-2.1-0.7c-0.5-0.4-0.8-1.1-0.9-1.9h1c0.1,0.5,0.2,0.9,0.6,1.2
			c0.3,0.3,0.8,0.4,1.3,0.4c0.6,0,1-0.1,1.3-0.4c0.3-0.3,0.4-0.7,0.4-1.1c0-0.6-0.2-1-0.6-1.3c-0.4-0.3-1-0.4-1.8-0.4h-0.3v-0.9h0.3
			c0.7,0,1.3-0.1,1.6-0.4c0.4-0.2,0.6-0.6,0.6-1.1c0-0.4-0.1-0.8-0.4-1c-0.3-0.3-0.7-0.4-1.2-0.4c-0.5,0-0.9,0.1-1.2,0.4
			c-0.3,0.3-0.5,0.6-0.5,1H9C9.1,14,9.4,13.5,9.9,13z"/>
		<path d="M21.1,13.4c0.7,0.3,1.2,0.8,1.5,1.4c0.3,0.6,0.5,1.4,0.5,2.2s-0.2,1.6-0.5,2.2c-0.3,0.6-0.9,1.1-1.5,1.4
			c-0.7,0.3-1.4,0.5-2.3,0.5h-2.6v-8.2h2.6C19.6,12.9,20.4,13.1,21.1,13.4z M21.2,19.4C21.7,18.8,22,18,22,17c0-1-0.3-1.8-0.8-2.4
			s-1.4-0.9-2.4-0.9h-1.5v6.5h1.5C19.8,20.2,20.6,20,21.2,19.4z"/>
	</g>
</g>
</svg>
