<?xml version="1.0" encoding="utf-8"?>
<!-- Generator: Adobe Illustrator 24.3.0, SVG Export Plug-In . SVG Version: 6.00 Build 0)  -->
<svg version="1.0" id="Layer_1" xmlns="http://www.w3.org/2000/svg" xmlns:xlink="http://www.w3.org/1999/xlink" x="0px" y="0px"
	 viewBox="0 0 19.3 32" style="enable-background:new 0 0 19.3 32;" xml:space="preserve">
<path d="M2.8,31.8c-0.9-0.3-1.5-1.1-2.1-1.8c-0.5-0.6-0.4-1.5,0-2.1c0.1-0.1,0.2-0.3,0.4-0.4c3.8-3.8,7.5-7.5,11.3-11.3
	c0.1-0.1,0.2-0.1,0.3-0.2c-0.1-0.1-0.2-0.2-0.3-0.3C8.6,11.9,4.8,8.2,1.1,4.4C0.4,3.7,0.2,2.9,0.7,2.2c0.5-0.6,1-1.2,1.7-1.7
	c0.6-0.4,1.4-0.3,1.9,0.2c0.1,0.1,0.2,0.1,0.3,0.2c4.6,4.6,9.2,9.2,13.7,13.7c0.7,0.7,0.8,1.5,0.4,2.2c-0.1,0.2-0.3,0.3-0.4,0.5
	c-4.6,4.6-9.2,9.2-13.7,13.7c-0.3,0.3-0.7,0.4-1,0.7C3.3,31.8,3.1,31.8,2.8,31.8z"/>
</svg>
