<?xml version="1.0" encoding="utf-8"?>
<!-- Generator: Adobe Illustrator 24.3.0, SVG Export Plug-In . SVG Version: 6.00 Build 0)  -->
<svg version="1.0" id="Layer_1" xmlns="http://www.w3.org/2000/svg" xmlns:xlink="http://www.w3.org/1999/xlink" x="0px" y="0px"
	 viewBox="0 0 32 32" style="enable-background:new 0 0 32 32;" xml:space="preserve">
<g>
	<path d="M31.8,6.4c-0.2,0.6-0.7,0.7-1.3,0.7c-9.7,0-19.3,0-29,0c-0.2,0-0.4,0-0.5-0.1C0.5,6.9,0.2,6.5,0.3,6
		c0.1-0.5,0.4-0.8,0.9-0.9c0.1,0,0.2,0,0.3,0c9.7,0,19.3,0,29,0c0.6,0,1,0.2,1.3,0.7C31.8,6.1,31.8,6.2,31.8,6.4z"/>
	<path d="M31.8,16.2c-0.2,0.6-0.7,0.7-1.3,0.7c-9.7,0-19.3,0-29,0c-0.2,0-0.4,0-0.5-0.1c-0.5-0.1-0.7-0.6-0.7-1
		c0.1-0.5,0.4-0.8,0.9-0.9c0.1,0,0.2,0,0.3,0c9.7,0,19.3,0,29,0c0.6,0,1,0.2,1.3,0.7C31.8,15.9,31.8,16.1,31.8,16.2z"/>
	<path d="M31.8,26.1c-0.2,0.6-0.7,0.7-1.3,0.7c-9.7,0-19.3,0-29,0c-0.2,0-0.4,0-0.5-0.1c-0.5-0.1-0.7-0.6-0.7-1
		c0.1-0.5,0.4-0.8,0.9-0.9c0.1,0,0.2,0,0.3,0c9.7,0,19.3,0,29,0c0.6,0,1,0.2,1.3,0.7C31.8,25.8,31.8,25.9,31.8,26.1z"/>
</g>
</svg>
