<?xml version="1.0" encoding="utf-8"?>
<!-- Generator: Adobe Illustrator 24.3.0, SVG Export Plug-In . SVG Version: 6.00 Build 0)  -->
<svg version="1.0" id="Layer_1" xmlns="http://www.w3.org/2000/svg" xmlns:xlink="http://www.w3.org/1999/xlink" x="0px" y="0px"
	 viewBox="0 0 32 32" style="enable-background:new 0 0 32 32;" xml:space="preserve">
<g>
	<path d="M12.6,16c0,4.1,0,8.2,0,12.2c0,1.6-1,2.9-2.5,3.3c-1,0.3-2,0.3-3.1,0c-1.4-0.4-2.3-1.7-2.3-3.3c0-4.1,0-8.3,0-12.4
		c0-4,0-8,0-12c0-2.2,1.4-3.6,3.6-3.6c0.6,0,1.2,0,1.7,0.1c1.5,0.4,2.5,1.7,2.5,3.3C12.6,7.8,12.6,11.9,12.6,16z"/>
	<path d="M27.2,16c0,4.1,0,8.2,0,12.2c0,1.6-1,2.9-2.5,3.3c-1,0.3-2,0.3-3.1,0c-1.4-0.4-2.3-1.7-2.3-3.3c0-4.2,0-8.5,0-12.7
		c0-3.9,0-7.8,0-11.7c0-2.2,1.4-3.6,3.6-3.6c0.6,0,1.2,0,1.7,0.1c1.5,0.4,2.5,1.7,2.5,3.3C27.2,7.8,27.2,11.9,27.2,16z"/>
</g>
</svg>
