<?xml version="1.0" encoding="utf-8"?>
<!-- Generator: Adobe Illustrator 24.3.0, SVG Export Plug-In . SVG Version: 6.00 Build 0)  -->
<svg version="1.0" id="Layer_1" xmlns="http://www.w3.org/2000/svg" xmlns:xlink="http://www.w3.org/1999/xlink" x="0px" y="0px"
	 viewBox="0 0 32 32" style="enable-background:new 0 0 32 32;" xml:space="preserve">
<path d="M4.6,31.8c-0.1,0-0.2-0.1-0.3-0.1c-1.1-0.3-1.8-1.2-2-2.4c0-0.3-0.1-0.6-0.1-0.9c0-8.3,0-16.6,0-24.9c0-0.5,0.1-0.9,0.2-1.4
	C3,0.4,4.9-0.3,6.6,0.7c1.6,0.9,3.2,1.8,4.7,2.7c5.5,3.1,11,6.3,16.5,9.4c0.4,0.2,0.7,0.4,1,0.7c1.2,1.2,1.2,2.9,0,4
	c-0.3,0.3-0.6,0.5-1,0.8C20.9,22.5,14,26.8,7,31c-0.5,0.3-1.1,0.5-1.6,0.7C5.1,31.8,4.8,31.8,4.6,31.8z M5.1,2.9C5.1,3,5,3,5.1,2.9
	C5,11.7,5,20.3,5,29.1c7.4-4.5,14.7-9,22-13.5c0,0,0-0.1,0-0.1C19.7,11.3,12.4,7.1,5.1,2.9z"/>
</svg>
