<?xml version="1.0" encoding="utf-8"?>
<!-- Generator: Adobe Illustrator 24.3.0, SVG Export Plug-In . SVG Version: 6.00 Build 0)  -->
<svg version="1.0" id="Layer_1" xmlns="http://www.w3.org/2000/svg" xmlns:xlink="http://www.w3.org/1999/xlink" x="0px" y="0px"
	 viewBox="0 0 32 32" style="enable-background:new 0 0 32 32;" xml:space="preserve">
<g>
	<path d="M4.4,31.8l-1,0c-1.1-0.4-1.7-1.2-1.7-2.3l0-26.8c0-0.2,0-0.5,0.1-0.7C2,1.2,2.5,0.7,3.1,0.4c0.6-0.3,1.4-0.2,2.1,0.2L29,14
		c0.9,0.5,1.3,1.4,1.2,2.3c-0.2,0.9-0.8,1.4-1.3,1.7L8.3,29.6c-0.8,0.5-1.7,0.9-2.6,1.4L4.4,31.8z M3.8,30.4H4l1-0.6
		c0.9-0.5,1.7-0.9,2.5-1.4l20.6-11.6c0.5-0.3,0.6-0.5,0.7-0.7c0-0.3,0-0.6-0.5-0.9L4.5,1.8C4.2,1.6,3.8,1.6,3.6,1.7
		C3.4,1.8,3.2,1.9,3.1,2.2c0,0.1,0,0.2,0,0.4l0,26.8C3.1,29.9,3.3,30.2,3.8,30.4z"/>
</g>
</svg>
