<?xml version="1.0" encoding="utf-8"?>
<!-- Generator: Adobe Illustrator 24.3.0, SVG Export Plug-In . SVG Version: 6.00 Build 0)  -->
<svg version="1.0" id="Layer_1" xmlns="http://www.w3.org/2000/svg" xmlns:xlink="http://www.w3.org/1999/xlink" x="0px" y="0px"
	 viewBox="0 0 32 32" style="enable-background:new 0 0 32 32;" xml:space="preserve">
<path d="M24.3,23.1c0.2,0.2,0.5,0.4,0.7,0.6c2.1,2.1,4.2,4.2,6.3,6.3c0.2,0.2,0.4,0.5,0.4,0.8c0.1,0.4-0.1,0.7-0.4,0.9
	c-0.3,0.2-0.7,0.2-1-0.1c-0.1-0.1-0.3-0.2-0.4-0.3c-2.2-2.2-4.4-4.4-6.5-6.5c-0.1-0.1-0.2-0.3-0.3-0.4c-3.3,2.8-7.1,3.9-11.3,3.3
	C8.2,27,5.3,25.2,3,22.3C-1.3,16.7-0.5,8.7,4.7,3.9C9.9-0.9,17.9-1,23.2,3.8C28.6,8.6,29.5,17.1,24.3,23.1z M25.9,14
	c0-6.6-5.3-11.9-11.9-11.9C7.4,2.1,2.1,7.4,2.1,14c0,6.6,5.3,11.9,11.9,11.9C20.6,25.9,25.9,20.6,25.9,14z"/>
</svg>
